<svg xmlns="http://www.w3.org/2000/svg" xmlns:xlink="http://www.w3.org/1999/xlink" width="32" height="37" viewBox="0 0 32 37">
  <defs>
    <style>
      .cls-1 {
        fill: #fff;
        fill-rule: evenodd;
        filter: url(#filter);
      }
    </style>
    <filter id="filter" x="799" y="1881" width="32" height="37" filterUnits="userSpaceOnUse">
      <feOffset result="offset" dy="1" in="SourceAlpha"/>
      <feGaussianBlur result="blur" stdDeviation="1.732"/>
      <feFlood result="flood" flood-color="#313235" flood-opacity="0.5"/>
      <feComposite result="composite" operator="in" in2="blur"/>
      <feBlend result="blend" in="SourceGraphic"/>
    </filter>
  </defs>
  <path id="ла" class="cls-1" d="M801.644,1896.63h3.682v-14.49h8.889a33.354,33.354,0,0,1,7.253.49c3.637,0.96,6.409,4.23,6.409,9.32,0,5.82-3.727,8.87-7.091,9.59a30.542,30.542,0,0,1-6.253.46h-3.039v2.73h15.019v5.36H811.494V1914h-6.168v-3.91h-3.682v-5.36h3.682V1902h-3.682v-5.37Zm9.85-9.09v9.05h2.358a13.828,13.828,0,0,0,4.662-.5,4.351,4.351,0,0,0-.864-8.32,24.484,24.484,0,0,0-4.208-.23h-1.948Z" transform="translate(-799 -1881)"/>
</svg>
